<svg xmlns="http://www.w3.org/2000/svg" viewBox="0 0 301.52 348.12"><g><g fill="#231f20"><path d="M150.92 348.12L0 261V87.12L150.87 0l150.65 86.84v174.42zM85.43 135.54v77L151 250.39l65.09-37.81V135.4L151 97.8zM62 123.49l38.61-22.79V75.12h21c.39 4.28.73 8 1.18 13l68.07-39.23-39.13-22.6C136.31 33.08 28.48 96 23.41 101v77L62 199.8zm49.32 175.87l39.65 23 128.19-74.07v-45.71zM279.26 99.87l-66-38.12c-12.74 7.79-25.95 14.4-39.4 23.33l66.06 38.3v76l39.34-22.77zM22.86 203.38c-.06 16.47.07 30.84 0 45.07L89 286.53l39.7-23.08z" fill-rule="evenodd"/><path d="M124.57 147.9h22.49v22.49h-22.49zM124.57 179h22.49v22.49h-22.49zM156.09 147.9h22.49v22.49h-22.49zM156.09 179h22.49v22.49h-22.49z"/></g></g></svg>